{"title":"Businessman 2012 Telugu 480p BRRiP X264 AAC","uid":8161626,"size":730443776,"categoryP":"video","categoryS":"movies","magnet":"?xt=urn:btih:75c3d171c1959b48855139d44c33a6f835daad41&amp;dn=Businessman+2012+Telugu+480p+BRRiP+X264+AAC&amp;tr=udp%3A%2F%2Ftracker.openbittorrent.com%3A80&amp;tr=udp%3A%2F%2Fopen.demonii.com%3A1337&amp;tr=udp%3A%2F%2Ftracker.coppersurfer.tk%3A6969&amp;tr=udp%3A%2F%2Fexodus.desync.com%3A6969","seeders":1,"leechers":0,"uploader":"vish3654","files":1,"time":1361262053,"description":"General\nFormat : AVI\nFormat/Info : Audio Video Interleave\nFile size : 697 MiB\nDuration : 2h 11mn\nOverall bit rate mode : Variable\nOverall bit rate : 742 Kbps\nWriting application : VirtualDubMod 1.5.10.2 (build 2540/release)\nWriting library : VirtualDubMod build 2540/release\n\nVideo\nID : 0\nFormat : MPEG-4 Visual\nFormat profile : Advanced Simple@L5\nFormat settings, BVOP : 3\nFormat settings, QPel : No\nFormat settings, GMC : No warppoints\nFormat settings, Matrix : Custom\nCodec ID : XVID\nCodec ID/Hint : XviD\nDuration : 2h 11mn\nBit rate : 638 Kbps\nWidth : 640 pixels\nHeight : 272 pixels\nDisplay aspect ratio : 2.35:1\nFrame rate : 24.000 fps\nColor space : YUV\nChroma subsampling : 4:2:0\nBit depth : 8 bits\nScan type : Progressive\nCompression mode : Lossy\nBits/(Pixel*Frame) : 0.153\nStream size : 599 MiB (86%)\nWriting library : XviD 1.2.1 (UTC 2008-12-04)\n\nAudio\nID : 1\nFormat : MPEG Audio\nFormat version : Version 1\nFormat profile : Layer 3\nMode : Joint stereo\nMode extension : MS Stereo\nCodec ID : 55\nCodec ID/Hint : MP3\nDuration : 2h 11mn\nBit rate mode : Variable\nBit rate : 96.0 Kbps\nChannel(s) : 2 channels\nSampling rate : 32.0 KHz\nCompression mode : Lossy\nStream size : 88.3 MiB (13%)\nAlignment : Aligned on interleaves\nInterleave, duration : 36 ms (0.86 video frame)\nInterleave, preload duration : 208 ms\nWriting library : LAME3.99r\nEncoding settings : -m j -V 4 -q 2 -lowpass 15.1 --abr 96\n","torrent":{"xt":"urn:btih:75c3d171c1959b48855139d44c33a6f835daad41","amp;dn":"Businessman+2012+Telugu+480p+BRRiP+X264+AAC","amp;tr":["udp%3A%2F%2Ftracker.openbittorrent.com%3A80","udp%3A%2F%2Fopen.demonii.com%3A1337","udp%3A%2F%2Ftracker.coppersurfer.tk%3A6969","udp%3A%2F%2Fexodus.desync.com%3A6969"],"infoHash":"75c3d171c1959b48855139d44c33a6f835daad41","infoHashBuffer":{"type":"Buffer","data":[117,195,209,113,193,149,155,72,133,81,57,212,76,51,166,248,53,218,173,65]},"announce":[],"urlList":[]}}